# The Great Editor v0.0.1
mtllib floor_1.mtl
o floor_1
v 4.475 -35.25 0
v 4.475 -35.25 -0.1
v 4.475 -97.99999999999999 0
v 4.475 -97.99999999999999 -0.1
v 81.92124999999999 -97.99999999999999 0
v 81.92124999999999 -97.99999999999999 -0.1
v 87.06654999999999 -101.24999999999999 0
v 87.06654999999999 -101.24999999999999 -0.1
v 99.39999999999999 -101.24999999999999 0
v 99.39999999999999 -101.24999999999999 -0.1
v 104.50954999999998 -97.99999999999999 0
v 104.50954999999998 -97.99999999999999 -0.1
v 183.85 -97.99999999999999 0
v 183.85 -97.99999999999999 -0.1
v 183.85 -215.49999999999997 0
v 183.85 -215.49999999999997 -0.1
v 198.54999999999998 -215.49999999999997 0
v 198.54999999999998 -215.49999999999997 -0.1
v 198.54999999999998 -217.49999999999997 0
v 198.54999999999998 -217.49999999999997 -0.1
v 220.99999999999997 -217.49999999999997 0
v 220.99999999999997 -217.49999999999997 -0.1
v 220.99999999999997 -215.49999999999997 0
v 220.99999999999997 -215.49999999999997 -0.1
v 235.99999999999997 -215.49999999999997 0
v 235.99999999999997 -215.49999999999997 -0.1
v 235.99999999999997 -4.35 0
v 235.99999999999997 -4.35 -0.1
v 220.99999999999997 -4.35 0
v 220.99999999999997 -4.35 -0.1
v 220.99999999999997 -1.8499999999999999 0
v 220.99999999999997 -1.8499999999999999 -0.1
v 198.54999999999998 -1.8499999999999999 0
v 198.54999999999998 -1.8499999999999999 -0.1
v 198.54999999999998 -4.35 0
v 198.54999999999998 -4.35 -0.1
v 183.49999999999997 -4.35 0
v 183.49999999999997 -4.35 -0.1
v 183.49999999999997 -31.549999999999997 0
v 183.49999999999997 -31.549999999999997 -0.1
v 181.99999999999997 -31.549999999999997 0
v 181.99999999999997 -31.549999999999997 -0.1
v 181.99999999999997 -35.25 0
v 181.99999999999997 -35.25 -0.1
v 104.50954999999998 -35.25 0
v 104.50954999999998 -35.25 -0.1
v 99.39999999999999 -31.849999999999998 0
v 99.39999999999999 -31.849999999999998 -0.1
v 87.06654999999999 -31.849999999999998 0
v 87.06654999999999 -31.849999999999998 -0.1
v 81.9212 -35.25 0
v 81.9212 -35.25 -0.1
vt 4.475 -35.25 0
vt 4.475 -97.99999999999999 0
vt 81.92124999999999 -97.99999999999999 0
vt 87.06654999999999 -101.24999999999999 0
vt 99.39999999999999 -101.24999999999999 0
vt 104.50954999999998 -97.99999999999999 0
vt 183.85 -97.99999999999999 0
vt 183.85 -215.49999999999997 0
vt 198.54999999999998 -215.49999999999997 0
vt 198.54999999999998 -217.49999999999997 0
vt 220.99999999999997 -217.49999999999997 0
vt 220.99999999999997 -215.49999999999997 0
vt 235.99999999999997 -215.49999999999997 0
vt 235.99999999999997 -4.35 0
vt 220.99999999999997 -4.35 0
vt 220.99999999999997 -1.8499999999999999 0
vt 198.54999999999998 -1.8499999999999999 0
vt 198.54999999999998 -4.35 0
vt 183.49999999999997 -4.35 0
vt 183.49999999999997 -31.549999999999997 0
vt 181.99999999999997 -31.549999999999997 0
vt 181.99999999999997 -35.25 0
vt 104.50954999999998 -35.25 0
vt 99.39999999999999 -31.849999999999998 0
vt 87.06654999999999 -31.849999999999998 0
vt 81.9212 -35.25 0
vn 0 0 1
vn 0 0 -1
usemtl floor_1
s off
f 1/1/1 3/2/1 51/26/1
f 52/26/2 4/2/2 2/1/2
f 37/19/1 39/20/1 35/18/1
f 36/18/2 40/20/2 38/19/2
f 33/17/1 35/18/1 29/15/1
f 30/15/2 36/18/2 34/17/2
f 33/17/1 29/15/1 31/16/1
f 32/16/2 30/15/2 34/17/2
f 27/14/1 29/15/1 43/22/1
f 44/22/2 30/15/2 28/14/2
f 27/14/1 43/22/1 13/7/1
f 14/7/2 44/22/2 28/14/2
f 27/14/1 13/7/1 25/13/1
f 26/13/2 14/7/2 28/14/2
f 19/10/1 21/11/1 17/9/1
f 18/9/2 22/11/2 20/10/2
f 15/8/1 17/9/1 13/7/1
f 14/7/2 18/9/2 16/8/2
f 3/2/1 5/3/1 51/26/1
f 52/26/2 6/3/2 4/2/2
f 51/26/1 5/3/1 45/23/1
f 46/23/2 6/3/2 52/26/2
f 51/26/1 45/23/1 49/25/1
f 50/25/2 46/23/2 52/26/2
f 49/25/1 45/23/1 47/24/1
f 48/24/2 46/23/2 50/25/2
f 45/23/1 5/3/1 11/6/1
f 12/6/2 6/3/2 46/23/2
f 45/23/1 11/6/1 43/22/1
f 44/22/2 12/6/2 46/23/2
f 41/21/1 43/22/1 39/20/1
f 40/20/2 44/22/2 42/21/2
f 39/20/1 43/22/1 29/15/1
f 30/15/2 44/22/2 40/20/2
f 39/20/1 29/15/1 35/18/1
f 36/18/2 30/15/2 40/20/2
f 43/22/1 11/6/1 13/7/1
f 14/7/2 12/6/2 44/22/2
f 11/6/1 5/3/1 7/4/1
f 8/4/2 6/3/2 12/6/2
f 11/6/1 7/4/1 9/5/1
f 10/5/2 8/4/2 12/6/2
f 13/7/1 17/9/1 23/12/1
f 24/12/2 18/9/2 14/7/2
f 13/7/1 23/12/1 25/13/1
f 26/13/2 24/12/2 14/7/2
f 21/11/1 23/12/1 17/9/1
f 18/9/2 24/12/2 22/11/2
