# The Great Editor v0.0.1
mtllib floor_1.mtl
o floor_1
v 0.8497500000000001 -1.0276500000000002 0
v 0.8497500000000001 -1.0276500000000002 -0.1
v 0.8828 -18.9264 0
v 0.8828 -18.9264 -0.1
v 24.73675 -18.8768 0
v 24.73675 -18.8768 -0.1
v 24.7533 -1.0276500000000002 0
v 24.7533 -1.0276500000000002 -0.1
vt 0.8497500000000001 -1.0276500000000002 0
vt 0.8828 -18.9264 0
vt 24.73675 -18.8768 0
vt 24.7533 -1.0276500000000002 0
vn 0 0 1
vn 0 0 -1
usemtl floor_1
s off
f 1/1/1 3/2/1 5/3/1
f 6/3/2 4/2/2 2/1/2
f 1/1/1 5/3/1 7/4/1
f 8/4/2 6/3/2 2/1/2
